<svg aria-hidden="true" style="position:absolute;width:0;height:0" xmlns="http://www.w3.org/2000/svg" overflow="hidden"><defs><symbol id="icon-ALARM" viewBox="0 0 32 32"><path fill="var(--color1, #95e1d3)" d="M29.873 10.826c-1.528-3.497-4.261-6.23-7.663-7.721l-.095-.037a5.5 5.5 0 0 1 3.416-1.186 5.528 5.528 0 0 1 5.528 5.528v.003a5.475 5.475 0 0 1-1.195 3.423l.009-.011zm-.226 6.115c0 3.625-1.423 6.911-3.73 9.355l1.91 1.909a1.396 1.396 0 0 1-1.974 1.974l-2.052-2.05a13.464 13.464 0 0 1-7.791 2.459h-.011H16h-.011c-2.912 0-5.61-.917-7.821-2.478l.043.029-2.036 2.036a1.412 1.412 0 1 1-1.997-1.995l.001-.001 1.893-1.894a13.592 13.592 0 0 1-3.719-9.344C2.353 9.404 8.463 3.294 16 3.294s13.647 6.11 13.647 13.647zM16 6.118c-5.977 0-10.824 4.845-10.824 10.824S10.022 27.766 16 27.766s10.824-4.847 10.824-10.824c0-5.978-4.846-10.824-10.824-10.824zm5.647 12.235H16c-.78 0-1.412-.632-1.412-1.412V9.412a1.412 1.412 0 1 1 2.824 0v6.118h4.235a1.412 1.412 0 1 1 0 2.824zM2.152 11.016A5.581 5.581 0 0 1 .941 7.532v-.003a5.647 5.647 0 0 1 5.647-5.647 5.62 5.62 0 0 1 3.488 1.211c-3.572 1.56-6.363 4.352-7.886 7.826l-.038.097z"/></symbol><symbol id="icon-BOOK" viewBox="0 0 33 32"><path fill="var(--color1, #95e1d3)" d="M31.12 25.308L17.5 30.943a1.416 1.416 0 0 1-1.127-.003l.009.004-13.619-5.635a1.414 1.414 0 0 1-.881-1.308V2.354a1.412 1.412 0 0 1 1.961-1.3l-.009-.003.003.001.012.005 13.093 5.416L30.05 1.05a1.412 1.412 0 0 1 1.951 1.305v21.647a1.41 1.41 0 0 1-.871 1.304l-.009.003zM15.529 8.943L4.705 4.464v18.592l10.824 4.479V8.944zm13.647-4.479l-10.824 4.48v18.591l10.824-4.48V4.466zm-8.583 6.486l5.176-2.353a1.412 1.412 0 0 1 1.177 2.567l-.009.004-5.176 2.353a1.412 1.412 0 0 1-1.177-2.567l.009-.004zm0 5.176l5.176-2.353a1.411 1.411 0 0 1 1.995 1.284v.001c0 .568-.336 1.058-.82 1.282l-.009.004-5.176 2.353a1.412 1.412 0 0 1-1.176-2.566l.008-.004zm0 5.177l5.176-2.353a1.412 1.412 0 0 1 1.177 2.567l-.009.004-5.176 2.353a1.412 1.412 0 0 1-1.177-2.567l.009-.004zM7.529 8.471c.208 0 .406.045.584.126l5.176 2.353a1.414 1.414 0 0 1-.611 2.685 1.4 1.4 0 0 1-.565-.118l.009.004-5.176-2.353a1.413 1.413 0 0 1 .584-2.697zm0 5.176c.208 0 .406.045.584.126l5.176 2.353a1.412 1.412 0 1 1-1.175 2.566l.008.004v.001l-5.176-2.353a1.413 1.413 0 0 1 .584-2.697zm0 5.177c.208 0 .406.045.584.126l5.176 2.353a1.414 1.414 0 0 1-.611 2.685 1.4 1.4 0 0 1-.565-.118l.009.004-5.176-2.353a1.413 1.413 0 0 1 .584-2.697z"/></symbol><symbol id="icon-COMPUTER" viewBox="0 0 35 32"><path fill="var(--color1, #95e1d3)" d="M32 25.806h-9.806v2.581l2.065 2.065v.516H10.84v-.516l2.065-2.065v-2.581H3.099a1.548 1.548 0 0 1-1.548-1.548V3.613c0-.855.693-1.548 1.548-1.548h28.903c.855 0 1.548.693 1.548 1.548v20.645c0 .855-.693 1.548-1.548 1.548zm-.516-21.677H3.613v17.548h27.871V4.129zm-17.032 7.226c.427 0 .815.173 1.094.453l.97.97 3.035-3.035a1.548 1.548 0 1 1 2.19 2.188l-4.129 4.129a1.542 1.542 0 0 1-2.19 0l-2.065-2.065a1.548 1.548 0 0 1 1.095-2.642z"/></symbol><symbol id="icon-HOME" viewBox="0 0 34 32"><path fill="var(--color1, #95e1d3)" d="M32.97 16.97c0 .803-.651 1.455-1.455 1.455a1.442 1.442 0 0 1-.99-.394l.001.001-.003.004L17.454 4.968 4.415 18.007a1.455 1.455 0 1 1-2.03-2.085l14.018-14.02a1.453 1.453 0 0 1 1.047-.446h.002c.025 0 .05 0 .077.002h.012c.031.002.055.005.079.008l-.009-.001c.356.039.673.206.905.454l5.725 5.721V6.305a1.455 1.455 0 0 1 2.91 0v4.245l5.428 5.428-.004.004c.242.26.394.606.394.989zm-2.909 2.424v10.182c0 .803-.651 1.455-1.455 1.455h-2.909V19.395h-5.818v11.636H6.303a1.455 1.455 0 0 1-1.455-1.455V19.394L17.454 6.788 30.06 19.394zm-15.031 0H9.212v5.818h5.818v-5.818z"/></symbol><symbol id="icon-IMAGE" viewBox="0 0 34 32"><path fill="var(--color1, #95e1d3)" d="M30.588 31.059H3.294c-.78 0-1.412-.632-1.412-1.412V2.353c0-.78.632-1.412 1.412-1.412h27.294c.78 0 1.412.632 1.412 1.412v27.294c0 .78-.632 1.412-1.412 1.412zM29.176 3.765H4.705v24.471h24.471V3.765zM8 5.176h5.176a1.412 1.412 0 1 1 0 2.824H8.941v4.235a1.412 1.412 0 1 1-2.824 0V5.176h1.882zM6.118 19.765a1.412 1.412 0 1 1 2.824 0V24h4.235a1.412 1.412 0 1 1 0 2.824H6.118v-7.059zM20.706 5.176h7.059v7.059a1.412 1.412 0 1 1-2.824 0V8h-4.235a1.412 1.412 0 1 1 0-2.824zm0 18.824h4.235v-4.235a1.412 1.412 0 1 1 2.824 0v7.059h-7.059a1.412 1.412 0 1 1 0-2.824z"/></symbol><symbol id="icon-LINEGRAPH" viewBox="0 0 32 32"><path fill="var(--color1, #95e1d3)" d="M28.8 31.086H2.286a1.371 1.371 0 0 1-1.371-1.371V3.201c0-.757.614-1.371 1.371-1.371H28.8c.757 0 1.371.614 1.371 1.371v26.514c0 .757-.614 1.371-1.371 1.371zM27.429 4.571H3.658v23.771h23.771V4.571zM5.682 16.676v-.002l3.657-2.284c.203-.127.451-.203.715-.203h.002c.284 0 .549.087.768.235l.005-.007 6.062 4.041 6.984-4.929a1.371 1.371 0 0 1 1.616 2.215l-.003.002-7.771 5.486a1.361 1.361 0 0 1-1.595.008l.004.003-6.086-4.058-2.866 1.792a1.371 1.371 0 0 1-1.495-2.297l.004-.003z"/></symbol></defs></svg>