<svg aria-hidden="true" style="position:absolute;width:0;height:0" xmlns="http://www.w3.org/2000/svg" overflow="hidden"><defs><symbol id="MAGNIFYING-GLASS1" viewBox="0 0 32 32"><path d="M29.307 25.573a2.641 2.641 0 0 1-3.735 3.735l-7.738-7.738a10.493 10.493 0 0 1-5.355 1.47c-5.832 0-10.56-4.728-10.56-10.56S6.647 1.92 12.479 1.92c5.832 0 10.56 4.728 10.56 10.56a10.447 10.447 0 0 1-1.498 5.402l.026-.047 7.739 7.738zM12.48 4.558a7.92 7.92 0 0 0 0 15.84 7.92 7.92 0 0 0 0-15.84z"/></symbol><symbol id="SHOPPING-CART1" viewBox="0 0 38 32"><path d="M35.249 8.777h.002L30.592 19.13a1.554 1.554 0 0 1-1.307.913h-.005l-13.417.894.776 2.214h14.609a3.107 3.107 0 1 1-3.106 3.106H13.648v.002a3.107 3.107 0 1 1-3.106-3.106h2.805L7.372 6.071H3.814a1.553 1.553 0 1 1 0-3.106h4.657a1.55 1.55 0 0 1 1.461 1.041h.006l.904 2.583h22.995a1.553 1.553 0 0 1 1.41 2.199l.004-.01zm-23.322.917l2.872 8.201 13.344-.89 3.29-7.311H11.928z"/></symbol></defs></svg>