<svg aria-hidden="true" style="position: absolute; width: 0; height: 0; overflow: hidden;" version="1.1" xmlns="http://www.w3.org/2000/svg" xmlns:xlink="http://www.w3.org/1999/xlink">
<defs>
<symbol id="icon-ALARM" viewBox="0 0 32 32">
<title>ALARM</title>
<path fill="#95e1d3" style="fill: var(--color1, #95e1d3)" d="M29.873 10.826c-1.528-3.497-4.261-6.23-7.663-7.721l-0.095-0.037c0.941-0.741 2.125-1.186 3.416-1.186 3.053 0 5.528 2.475 5.528 5.528v0c0 0.001 0 0.002 0 0.003 0 1.294-0.447 2.484-1.195 3.423l0.009-0.011zM29.647 16.941c0 3.625-1.423 6.911-3.73 9.355l1.91 1.909c0.243 0.251 0.393 0.593 0.393 0.971 0 0.771-0.625 1.396-1.396 1.396-0.377 0-0.72-0.15-0.971-0.393l0 0-2.052-2.050c-2.171 1.538-4.873 2.459-7.791 2.459-0.004 0-0.007 0-0.011 0h0.001c-0.003 0-0.007 0-0.011 0-2.912 0-5.61-0.917-7.821-2.478l0.043 0.029-2.036 2.036c-0.258 0.272-0.622 0.442-1.026 0.442-0.78 0-1.412-0.632-1.412-1.412 0-0.404 0.169-0.768 0.441-1.025l0.001-0.001 1.893-1.894c-2.299-2.443-3.719-5.725-3.719-9.344 0-7.537 6.11-13.647 13.647-13.647s13.647 6.11 13.647 13.647zM16 6.118c-5.977 0-10.824 4.845-10.824 10.824s4.846 10.824 10.824 10.824 10.824-4.847 10.824-10.824c0-5.978-4.846-10.824-10.824-10.824zM21.647 18.353h-5.647c-0.78 0-1.412-0.632-1.412-1.412v0-7.529c0-0.78 0.632-1.412 1.412-1.412s1.412 0.632 1.412 1.412v0 6.118h4.235c0.78 0 1.412 0.632 1.412 1.412s-0.632 1.412-1.412 1.412v0zM2.152 11.016c-0.755-0.948-1.211-2.163-1.211-3.484 0-0.001 0-0.002 0-0.003v0c0-3.119 2.528-5.647 5.647-5.647v0c1.318 0 2.527 0.455 3.488 1.211-3.572 1.56-6.363 4.352-7.886 7.826l-0.038 0.097z"></path>
</symbol>
<symbol id="icon-BOOK" viewBox="0 0 33 32">
<title>BOOK</title>
<path fill="#95e1d3" style="fill: var(--color1, #95e1d3)" d="M31.12 25.308l-13.62 5.635c-0.165 0.073-0.357 0.116-0.559 0.116s-0.394-0.043-0.568-0.119l0.009 0.004-13.619-5.635c-0.521-0.215-0.881-0.72-0.881-1.308 0-0 0-0 0-0v0-21.647c0.001-0.779 0.632-1.411 1.412-1.411 0.195 0 0.38 0.039 0.549 0.111l-0.009-0.003 0.003 0.001 0.012 0.005 13.093 5.416 13.108-5.423c0.159-0.068 0.345-0.107 0.539-0.107 0.78 0 1.412 0.632 1.412 1.412v0 21.647c0 0 0 0 0 0 0 0.588-0.359 1.092-0.871 1.304l-0.009 0.003zM15.529 8.943l-10.824-4.479v18.592l10.824 4.479v-18.591zM29.176 4.464l-10.824 4.48v18.591l10.824-4.48v-18.589zM20.593 10.95l5.176-2.353c0.167-0.075 0.362-0.119 0.567-0.119 0.78 0 1.412 0.632 1.412 1.412 0 0.561-0.328 1.046-0.802 1.274l-0.009 0.004-5.176 2.353c-0.167 0.075-0.362 0.119-0.567 0.119-0.78 0-1.412-0.632-1.412-1.412 0-0.561 0.328-1.046 0.802-1.274l0.009-0.004zM20.593 16.126l5.176-2.353c0.172-0.080 0.373-0.127 0.584-0.127 0.779 0 1.411 0.632 1.411 1.411 0 0 0 0 0 0.001v-0c0 0 0 0 0 0 0 0.568-0.336 1.058-0.82 1.282l-0.009 0.004-5.176 2.353c-0.162 0.070-0.35 0.111-0.548 0.111-0.78 0-1.412-0.632-1.412-1.412 0-0.554 0.319-1.034 0.784-1.265l0.008-0.004zM20.593 21.303l5.176-2.353c0.167-0.075 0.362-0.119 0.567-0.119 0.78 0 1.412 0.632 1.412 1.412 0 0.561-0.328 1.046-0.802 1.274l-0.009 0.004-5.176 2.353c-0.167 0.075-0.362 0.119-0.567 0.119-0.78 0-1.412-0.632-1.412-1.412 0-0.561 0.328-1.046 0.802-1.274l0.009-0.004zM7.529 8.471c0.208 0 0.406 0.045 0.584 0.126l5.176 2.353c0.478 0.233 0.801 0.715 0.801 1.273 0 0.78-0.632 1.412-1.412 1.412-0.201 0-0.392-0.042-0.565-0.118l0.009 0.004-5.176-2.353c-0.492-0.228-0.826-0.717-0.826-1.285 0-0.779 0.631-1.411 1.41-1.412h0zM7.529 13.647c0.208 0 0.406 0.045 0.584 0.126l5.176 2.353c0.515 0.218 0.87 0.719 0.87 1.304 0 0.78-0.632 1.412-1.412 1.412-0.228 0-0.443-0.054-0.633-0.15l0.008 0.004v0.001l-5.176-2.353c-0.492-0.228-0.826-0.717-0.826-1.285 0-0.779 0.631-1.411 1.41-1.412h0zM7.529 18.824c0.208 0 0.406 0.045 0.584 0.126l5.176 2.353c0.478 0.233 0.801 0.715 0.801 1.273 0 0.78-0.632 1.412-1.412 1.412-0.201 0-0.392-0.042-0.565-0.118l0.009 0.004-5.176-2.353c-0.492-0.228-0.826-0.717-0.826-1.285 0-0.779 0.631-1.411 1.41-1.412h0z"></path>
</symbol>
<symbol id="icon-COMPUTER" viewBox="0 0 35 32">
<title>COMPUTER</title>
<path fill="#95e1d3" style="fill: var(--color1, #95e1d3)" d="M32 25.806h-9.806v2.581l2.065 2.065v0.516h-13.419v-0.516l2.065-2.065v-2.581h-9.806c-0.855 0-1.548-0.693-1.548-1.548v0-20.645c0-0.855 0.693-1.548 1.548-1.548v0h28.903c0.855 0 1.548 0.693 1.548 1.548v0 20.645c0 0.855-0.693 1.548-1.548 1.548v0zM31.484 4.129h-27.871v17.548h27.871v-17.548zM14.452 11.355c0.427 0 0.815 0.173 1.094 0.453l0.97 0.97 3.035-3.035c0.282-0.292 0.677-0.473 1.114-0.473 0.855 0 1.548 0.693 1.548 1.548 0 0.437-0.181 0.832-0.472 1.113l-0 0-4.129 4.129c-0.28 0.281-0.667 0.456-1.095 0.456s-0.815-0.174-1.095-0.456l-2.065-2.065c-0.28-0.28-0.453-0.667-0.453-1.094 0-0.855 0.693-1.548 1.548-1.548h0z"></path>
</symbol>
<symbol id="icon-HOME" viewBox="0 0 34 32">
<title>HOME</title>
<path fill="#95e1d3" style="fill: var(--color1, #95e1d3)" d="M32.97 16.97c0 0.803-0.651 1.455-1.455 1.455v0c-0.383-0.001-0.732-0.15-0.99-0.394l0.001 0.001-0.003 0.004-13.069-13.068-13.039 13.039c-0.263 0.261-0.625 0.423-1.026 0.423-0.803 0-1.455-0.651-1.455-1.455 0-0.414 0.173-0.788 0.451-1.053l14.018-14.020c0.265-0.274 0.636-0.446 1.047-0.446h0.002c0.025 0 0.050 0 0.077 0.002h0.012c0.031 0.002 0.055 0.005 0.079 0.008l-0.009-0.001c0.356 0.039 0.673 0.206 0.905 0.454l5.725 5.721v-1.335c0-0.803 0.651-1.455 1.455-1.455s1.455 0.651 1.455 1.455v0 4.245l5.428 5.428-0.004 0.004c0.242 0.26 0.394 0.606 0.394 0.989zM30.061 19.394v10.182c0 0.803-0.651 1.455-1.455 1.455v0h-2.909v-11.636h-5.818v11.636h-13.576c-0.803 0-1.455-0.651-1.455-1.455v0-10.182l12.606-12.606 12.606 12.606zM15.030 19.394h-5.818v5.818h5.818v-5.818z"></path>
</symbol>
<symbol id="icon-IMAGE" viewBox="0 0 34 32">
<title>IMAGE</title>
<path fill="#95e1d3" style="fill: var(--color1, #95e1d3)" d="M30.588 31.059h-27.294c-0.78 0-1.412-0.632-1.412-1.412v0-27.294c0-0.78 0.632-1.412 1.412-1.412v0h27.294c0.78 0 1.412 0.632 1.412 1.412v0 27.294c0 0.78-0.632 1.412-1.412 1.412v0zM29.176 3.765h-24.471v24.471h24.471v-24.471zM8 5.176h5.176c0.78 0 1.412 0.632 1.412 1.412s-0.632 1.412-1.412 1.412v0h-4.235v4.235c0 0.78-0.632 1.412-1.412 1.412s-1.412-0.632-1.412-1.412v0-7.059h1.882zM6.118 19.765c0-0.78 0.632-1.412 1.412-1.412s1.412 0.632 1.412 1.412v0 4.235h4.235c0.78 0 1.412 0.632 1.412 1.412s-0.632 1.412-1.412 1.412v0h-7.059v-7.059zM20.706 5.176h7.059v7.059c0 0.78-0.632 1.412-1.412 1.412s-1.412-0.632-1.412-1.412v0-4.235h-4.235c-0.78 0-1.412-0.632-1.412-1.412s0.632-1.412 1.412-1.412v0zM20.706 24h4.235v-4.235c0-0.78 0.632-1.412 1.412-1.412s1.412 0.632 1.412 1.412v0 7.059h-7.059c-0.78 0-1.412-0.632-1.412-1.412s0.632-1.412 1.412-1.412v0z"></path>
</symbol>
<symbol id="icon-LINEGRAPH" viewBox="0 0 32 32">
<title>LINEGRAPH</title>
<path fill="#95e1d3" style="fill: var(--color1, #95e1d3)" d="M28.8 31.086h-26.514c-0.757 0-1.371-0.614-1.371-1.371v0-26.514c0-0.757 0.614-1.371 1.371-1.371v0h26.514c0.757 0 1.371 0.614 1.371 1.371v0 26.514c0 0.757-0.614 1.371-1.371 1.371v0zM27.429 4.571h-23.771v23.771h23.771v-23.771zM5.682 16.676v-0.002l3.657-2.284c0.203-0.127 0.451-0.203 0.715-0.203 0.001 0 0.002 0 0.002 0h-0c0.284 0 0.549 0.087 0.768 0.235l0.005-0.007 6.062 4.041 6.984-4.929c0.219-0.155 0.492-0.248 0.787-0.248 0.757 0 1.371 0.614 1.371 1.371 0 0.446-0.213 0.842-0.542 1.092l-0.003 0.002-7.771 5.486c-0.222 0.163-0.501 0.261-0.803 0.261-0.295 0-0.569-0.094-0.792-0.253l0.004 0.003-6.086-4.058-2.866 1.792c-0.202 0.124-0.446 0.197-0.708 0.197-0.757 0-1.371-0.614-1.371-1.371 0-0.464 0.231-0.875 0.584-1.123l0.004-0.003z"></path>
</symbol>
</defs>
</svg>
