<svg aria-hidden="true" style="position: absolute; width: 0; height: 0; overflow: hidden;" version="1.1" xmlns="http://www.w3.org/2000/svg" xmlns:xlink="http://www.w3.org/1999/xlink">
<defs>
<symbol id="MAGNIFYING-GLASS1" viewBox="0 0 32 32">
<title>MAGNIFYING-GLASS1</title>
<path d="M29.307 25.573c0.478 0.478 0.773 1.138 0.773 1.867 0 1.458-1.182 2.641-2.641 2.641-0.729 0-1.389-0.296-1.867-0.773l-7.738-7.738c-1.571 0.928-3.398 1.47-5.355 1.47-5.832 0-10.56-4.728-10.56-10.56s4.728-10.56 10.56-10.56c5.832 0 10.56 4.728 10.56 10.56v0c-0.001 1.976-0.548 3.825-1.498 5.402l0.026-0.047 7.739 7.738zM12.48 4.558c-4.374 0-7.92 3.546-7.92 7.92s3.546 7.92 7.92 7.92v0c4.374 0 7.92-3.546 7.92-7.92s-3.546-7.92-7.92-7.92v0z"></path>
</symbol>
<symbol id="SHOPPING-CART1" viewBox="0 0 38 32">
<title>SHOPPING-CART1</title>
<path d="M35.249 8.777h0.002l-4.659 10.353c-0.234 0.514-0.727 0.873-1.307 0.913l-0.005 0-13.417 0.894 0.776 2.214h14.609c1.715 0 3.106 1.391 3.106 3.106s-1.391 3.106-3.106 3.106c-1.715 0-3.106-1.391-3.106-3.106v0h-14.494c0 0.001 0 0.001 0 0.002 0 1.715-1.391 3.106-3.106 3.106s-3.106-1.391-3.106-3.106c0-1.715 1.391-3.106 3.106-3.106h2.805l-5.975-17.082h-3.558c-0.858 0-1.553-0.695-1.553-1.553s0.695-1.553 1.553-1.553v0h4.657c0.678 0 1.248 0.437 1.461 1.041h0.006l0.904 2.583h22.995c0.856 0.002 1.55 0.696 1.55 1.553 0 0.23-0.050 0.449-0.14 0.646l0.004-0.010zM11.927 9.694l2.872 8.201 13.344-0.89 3.29-7.311h-19.505z"></path>
</symbol>
</defs>
</svg>
